# xmcd
#
# Track frame offsets:
# 150
# 17010
# 39262
# 57156
# 73681
# 88451
# 97083
# 119755
# 138729
# 151139
# 165182
# 183408
# 197088
# 211672
#
# Disc length: 3186 seconds
#
#
# Revision: 2
# Processed by: cddbd v1.5.2PL0 Copyright (c) Steve Scherf et al.
# Submitted via: FreeRIP 2.90 
#
DISCID=c10c700e
DTITLE=Os Monarcas - Ao Vivo - 35 Anos - História Música e Tradição
DYEAR=0
DGENRE=Acoustic
TTITLE0=O gaucho e o cavalo
TTITLE1=Cheiro de galpao
TTITLE2=Sonhando na vaneira
TTITLE3=O vento
TTITLE4=Tirando o chapeu pra deus
TTITLE5=Aquerenciado
TTITLE6=Bateu saudade
TTITLE7=Erechim historia e canto
TTITLE8=Rancheirinha puladinha
TTITLE9=Vai que vai
TTITLE10=Brasil de bombacha
TTITLE11=Nao encosta a barriguinha
TTITLE12=Ginetiando temporal
TTITLE13=A gaita gaucha dos monarcas
EXTD=
EXTT0=
EXTT1=
EXTT2=
EXTT3=
EXTT4=
EXTT5=
EXTT6=
EXTT7=
EXTT8=
EXTT9=
EXTT10=
EXTT11=
EXTT12=
EXTT13=
PLAYORDER=
